+ filenameToUse=/home/horvathandras/vatic/vatic/public/videouploads/DJI_0039_turas.avi
+ filenameNoDot=DJI_0039_turas_Homokmegy_2018.03.31._diffuz_kalaszos_T1
+ FullUploadPath=/home/horvathandras/vatic/vatic/public/videouploads/DJI_0039_turas.avi
+ VideoDataDir=/home/horvathandras/vatic/vatic/videos
+ AvailableObjectTypes='PozitívROI NegatívROI Túrás ~Friss ~Régebbi Rágás ~Friss ~Régebbi Törés ~Friss ~Régebbi Taposás ~Friss ~Régebbi EgészségesNövény Egyéb1 Egyéb2 Egyéb3 Egyéb4 Egyéb5'
++ dirname /home/horvathandras/vatic/vatic/vatic_publisher.sh
+ cd /home/horvathandras/vatic/vatic
+ touch /home/horvathandras/vatic/vatic/public/videouploads/DJI_0039_turas.avi
+ chmod 744 /home/horvathandras/vatic/vatic/public/videouploads/DJI_0039_turas.avi
+ mkdir /home/horvathandras/vatic/vatic/videos/DJI_0039_turas_Homokmegy_2018.03.31._diffuz_kalaszos_T1
+ turkic extract /home/horvathandras/vatic/vatic/public/videouploads/DJI_0039_turas.avi /home/horvathandras/vatic/vatic/videos/DJI_0039_turas_Homokmegy_2018.03.31._diffuz_kalaszos_T1 --no-resize
ffmpeg version 2.8.14-0ubuntu0.16.04.1 Copyright (c) 2000-2018 the FFmpeg developers
  built with gcc 5.4.0 (Ubuntu 5.4.0-6ubuntu1~16.04.9) 20160609
  configuration: --prefix=/usr --extra-version=0ubuntu0.16.04.1 --build-suffix=-ffmpeg --toolchain=hardened --libdir=/usr/lib/x86_64-linux-gnu --incdir=/usr/include/x86_64-linux-gnu --cc=cc --cxx=g++ --enable-gpl --enable-shared --disable-stripping --disable-decoder=libopenjpeg --disable-decoder=libschroedinger --enable-avresample --enable-avisynth --enable-gnutls --enable-ladspa --enable-libass --enable-libbluray --enable-libbs2b --enable-libcaca --enable-libcdio --enable-libflite --enable-libfontconfig --enable-libfreetype --enable-libfribidi --enable-libgme --enable-libgsm --enable-libmodplug --enable-libmp3lame --enable-libopenjpeg --enable-libopus --enable-libpulse --enable-librtmp --enable-libschroedinger --enable-libshine --enable-libsnappy --enable-libsoxr --enable-libspeex --enable-libssh --enable-libtheora --enable-libtwolame --enable-libvorbis --enable-libvpx --enable-libwavpack --enable-libwebp --enable-libx265 --enable-libxvid --enable-libzvbi --enable-openal --enable-opengl --enable-x11grab --enable-libdc1394 --enable-libiec61883 --enable-libzmq --enable-frei0r --enable-libx264 --enable-libopencv
  libavutil      54. 31.100 / 54. 31.100
  libavcodec     56. 60.100 / 56. 60.100
  libavformat    56. 40.101 / 56. 40.101
  libavdevice    56.  4.100 / 56.  4.100
  libavfilter     5. 40.101 /  5. 40.101
  libavresample   2.  1.  0 /  2.  1.  0
  libswscale      3.  1.101 /  3.  1.101
  libswresample   1.  2.101 /  1.  2.101
  libpostproc    53.  3.100 / 53.  3.100
Input #0, mov,mp4,m4a,3gp,3g2,mj2, from '/home/horvathandras/vatic/vatic/public/videouploads/DJI_0039_turas.avi':
  Metadata:
    major_brand     : qt  
    minor_version   : 537986816
    compatible_brands: qt  
    creation_time   : 2018-03-31 10:37:49
    location        : +46.515418+19.172882+30.700
    location-{    : +46.515418+19.172882+30.700
    comment         : DE=None, Mode=P, DSW=0001
  Duration: 00:01:32.39, start: 0.000000, bitrate: 100249 kb/s
    Stream #0:0(eng): Video: h264 (High) (avc1 / 0x31637661), yuv420p(tv, bt709), 3840x2160 [SAR 1:1 DAR 16:9], 100203 kb/s, 29.97 fps, 29.97 tbr, 30k tbn, 59.94 tbc (default)
    Metadata:
      creation_time   : 2018-03-31 10:37:49
      handler_name    : DJI.AVC
      encoder         : AVC encoder
    Stream #0:1(eng): Data: none (priv / 0x76697270), 44 kb/s
    Metadata:
      creation_time   : 2018-03-31 10:37:49
      handler_name    : DJI.Meta
Please use -b:a or -b:v, -b is ambiguous
[swscaler @ 0x1b98a20] deprecated pixel format used, make sure you did set range correctly
Output #0, image2, to '/tmp/pyvision-ffmpeg-155306819/%d.jpg':
  Metadata:
    major_brand     : qt  
    minor_version   : 537986816
    compatible_brands: qt  
    comment         : DE=None, Mode=P, DSW=0001
    location        : +46.515418+19.172882+30.700
    location-{    : +46.515418+19.172882+30.700
    encoder         : Lavf56.40.101
    Stream #0:0(eng): Video: mjpeg, yuvj420p(pc), 3840x2160 [SAR 1:1 DAR 16:9], q=2-31, 10000 kb/s, 29.97 fps, 29.97 tbn, 29.97 tbc (default)
    Metadata:
      creation_time   : 2018-03-31 10:37:49
      handler_name    : DJI.AVC
      encoder         : Lavc56.60.100 mjpeg
Stream mapping:
  Stream #0:0 -> #0:0 (h264 (native) -> mjpeg (native))
Press [q] to stop, [?] for help
frame=    1 fps=1.0 q=17.7 size=N/A time=00:00:00.03 bitrate=N/A    frame=    4 fps=2.3 q=24.6 size=N/A time=00:00:00.13 bitrate=N/A    frame=    8 fps=3.5 q=24.8 size=N/A time=00:00:00.26 bitrate=N/A    frame=   12 fps=4.0 q=24.8 size=N/A time=00:00:00.40 bitrate=N/A    frame=   16 fps=4.5 q=24.8 size=N/A time=00:00:00.53 bitrate=N/A    frame=   19 fps=4.6 q=24.8 size=N/A time=00:00:00.63 bitrate=N/A    frame=   23 fps=5.0 q=24.8 size=N/A time=00:00:00.76 bitrate=N/A    frame=   27 fps=5.2 q=24.8 size=N/A time=00:00:00.90 bitrate=N/A    frame=   31 fps=5.4 q=24.8 size=N/A time=00:00:01.03 bitrate=N/A    frame=   35 fps=5.6 q=24.8 size=N/A time=00:00:01.16 bitrate=N/A    frame=   39 fps=5.6 q=24.8 size=N/A time=00:00:01.30 bitrate=N/A    frame=   42 fps=5.6 q=24.8 size=N/A time=00:00:01.40 bitrate=N/A    frame=   46 fps=5.8 q=24.8 size=N/A time=00:00:01.53 bitrate=N/A    frame=   50 fps=5.9 q=24.8 size=N/A time=00:00:01.66 bitrate=N/A    frame=   53 fps=5.9 q=24.8 size=N/A time=00:00:01.76 bitrate=N/A    frame=   57 fps=6.0 q=24.8 size=N/A time=00:00:01.90 bitrate=N/A    frame=   60 fps=6.0 q=24.8 size=N/A time=00:00:02.00 bitrate=N/A    frame=   63 fps=5.9 q=24.8 size=N/A time=00:00:02.10 bitrate=N/A    frame=   67 fps=5.9 q=24.8 size=N/A time=00:00:02.23 bitrate=N/A    frame=   70 fps=5.9 q=24.8 size=N/A time=00:00:02.33 bitrate=N/A    frame=   74 fps=5.9 q=24.8 size=N/A time=00:00:02.46 bitrate=N/A    frame=   78 fps=5.9 q=24.8 size=N/A time=00:00:02.60 bitrate=N/A    frame=   82 fps=6.0 q=24.8 size=N/A time=00:00:02.73 bitrate=N/A    frame=   86 fps=6.0 q=24.8 size=N/A time=00:00:02.86 bitrate=N/A    frame=   89 fps=6.0 q=24.8 size=N/A time=00:00:02.96 bitrate=N/A    frame=   93 fps=6.0 q=24.8 size=N/A time=00:00:03.10 bitrate=N/A    frame=   97 fps=6.0 q=24.8 size=N/A time=00:00:03.23 bitrate=N/A    frame=  101 fps=6.1 q=24.8 size=N/A time=00:00:03.37 bitrate=N/A    frame=  104 fps=6.1 q=24.8 size=N/A time=00:00:03.47 bitrate=N/A    frame=  108 fps=6.1 q=24.8 size=N/A time=00:00:03.60 bitrate=N/A    frame=  111 fps=6.1 q=24.8 size=N/A time=00:00:03.70 bitrate=N/A    frame=  114 fps=6.1 q=24.8 size=N/A time=00:00:03.80 bitrate=N/A    frame=  118 fps=6.1 q=24.8 size=N/A time=00:00:03.93 bitrate=N/A    frame=  120 fps=6.0 q=24.8 size=N/A time=00:00:04.00 bitrate=N/A    frame=  124 fps=6.1 q=24.8 size=N/A time=00:00:04.13 bitrate=N/A    frame=  127 fps=6.0 q=24.8 size=N/A time=00:00:04.23 bitrate=N/A    frame=  131 fps=6.0 q=24.8 size=N/A time=00:00:04.37 bitrate=N/A    frame=  135 fps=6.0 q=24.8 size=N/A time=00:00:04.50 bitrate=N/A    frame=  139 fps=6.0 q=24.8 size=N/A time=00:00:04.63 bitrate=N/A    frame=  143 fps=6.0 q=24.8 size=N/A time=00:00:04.77 bitrate=N/A    frame=  147 fps=6.0 q=24.8 size=N/A time=00:00:04.90 bitrate=N/A    frame=  150 fps=6.0 q=24.8 size=N/A time=00:00:05.00 bitrate=N/A    frame=  154 fps=6.0 q=24.8 size=N/A time=00:00:05.13 bitrate=N/A    frame=  158 fps=6.1 q=24.8 size=N/A time=00:00:05.27 bitrate=N/A    frame=  162 fps=6.1 q=24.8 size=N/A time=00:00:05.40 bitrate=N/A    frame=  166 fps=6.1 q=24.8 size=N/A time=00:00:05.53 bitrate=N/A    frame=  170 fps=6.1 q=24.8 size=N/A time=00:00:05.67 bitrate=N/A    frame=  174 fps=6.1 q=24.8 size=N/A time=00:00:05.80 bitrate=N/A    frame=  178 fps=6.1 q=24.8 size=N/A time=00:00:05.93 bitrate=N/A    frame=  182 fps=6.2 q=24.8 size=N/A time=00:00:06.07 bitrate=N/A    frame=  186 fps=6.2 q=24.8 size=N/A time=00:00:06.20 bitrate=N/A    frame=  190 fps=6.2 q=24.8 size=N/A time=00:00:06.33 bitrate=N/A    frame=  194 fps=6.2 q=24.8 size=N/A time=00:00:06.47 bitrate=N/A    frame=  198 fps=6.2 q=24.8 size=N/A time=00:00:06.60 bitrate=N/A    frame=  202 fps=6.2 q=24.8 size=N/A time=00:00:06.74 bitrate=N/A    frame=  206 fps=6.2 q=24.8 size=N/A time=00:00:06.87 bitrate=N/A    frame=  210 fps=6.2 q=24.8 size=N/A time=00:00:07.00 bitrate=N/A    frame=  213 fps=6.2 q=24.8 size=N/A time=00:00:07.10 bitrate=N/A    frame=  217 fps=6.2 q=24.8 size=N/A time=00:00:07.24 bitrate=N/A    frame=  221 fps=6.2 q=24.8 size=N/A time=00:00:07.37 bitrate=N/A    frame=  225 fps=6.2 q=24.8 size=N/A time=00:00:07.50 bitrate=N/A    frame=  229 fps=6.2 q=24.8 size=N/A time=00:00:07.64 bitrate=N/A    frame=  233 fps=6.3 q=24.8 size=N/A time=00:00:07.77 bitrate=N/A    frame=  237 fps=6.3 q=24.8 size=N/A time=00:00:07.90 bitrate=N/A    frame=  241 fps=6.2 q=24.8 size=N/A time=00:00:08.04 bitrate=N/A    frame=  245 fps=6.2 q=24.8 size=N/A time=00:00:08.17 bitrate=N/A    frame=  248 fps=6.2 q=24.8 size=N/A time=00:00:08.27 bitrate=N/A    frame=  252 fps=6.2 q=24.8 size=N/A time=00:00:08.40 bitrate=N/A    frame=  255 fps=6.2 q=24.8 size=N/A time=00:00:08.50 bitrate=N/A    frame=  259 fps=6.2 q=24.8 size=N/A time=00:00:08.64 bitrate=N/A    frame=  263 fps=6.3 q=24.8 size=N/A time=00:00:08.77 bitrate=N/A    frame=  267 fps=6.2 q=24.8 size=N/A time=00:00:08.90 bitrate=N/A    frame=  270 fps=6.2 q=24.8 size=N/A time=00:00:09.00 bitrate=N/A    frame=  274 fps=6.2 q=24.8 size=N/A time=00:00:09.14 bitrate=N/A    frame=  277 fps=6.2 q=24.8 size=N/A time=00:00:09.24 bitrate=N/A    frame=  281 fps=6.2 q=24.8 size=N/A time=00:00:09.37 bitrate=N/A    frame=  285 fps=6.2 q=24.8 size=N/A time=00:00:09.50 bitrate=N/A    frame=  289 fps=6.2 q=24.8 size=N/A time=00:00:09.64 bitrate=N/A    frame=  293 fps=6.2 q=24.8 size=N/A time=00:00:09.77 bitrate=N/A    frame=  297 fps=6.2 q=24.8 size=N/A time=00:00:09.90 bitrate=N/A    frame=  300 fps=6.2 q=24.8 size=N/A time=00:00:10.01 bitrate=N/A    frame=  304 fps=6.2 q=24.8 size=N/A time=00:00:10.14 bitrate=N/A    frame=  308 fps=6.2 q=24.8 size=N/A time=00:00:10.27 bitrate=N/A    frame=  312 fps=6.3 q=24.8 size=N/A time=00:00:10.41 bitrate=N/A    frame=  315 fps=6.2 q=24.8 size=N/A time=00:00:10.51 bitrate=N/A    frame=  318 fps=6.2 q=24.8 size=N/A time=00:00:10.61 bitrate=N/A    frame=  322 fps=6.2 q=24.8 size=N/A time=00:00:10.74 bitrate=N/A    frame=  326 fps=6.2 q=24.8 size=N/A time=00:00:10.87 bitrate=N/A    frame=  330 fps=6.2 q=24.8 size=N/A time=00:00:11.01 bitrate=N/A    frame=  333 fps=6.2 q=24.8 size=N/A time=00:00:11.11 bitrate=N/A    frame=  336 fps=6.2 q=24.8 size=N/A time=00:00:11.21 bitrate=N/A    frame=  340 fps=6.2 q=24.8 size=N/A time=00:00:11.34 bitrate=N/A    frame=  343 fps=6.2 q=24.8 size=N/A time=00:00:11.44 bitrate=N/A    frame=  347 fps=6.2 q=24.8 size=N/A time=00:00:11.57 bitrate=N/A    frame=  351 fps=6.2 q=24.8 size=N/A time=00:00:11.71 bitrate=N/A    frame=  355 fps=6.2 q=24.8 size=N/A time=00:00:11.84 bitrate=N/A    frame=  358 fps=6.2 q=24.8 size=N/A time=00:00:11.94 bitrate=N/A    frame=  361 fps=6.2 q=24.8 size=N/A time=00:00:12.04 bitrate=N/A    frame=  365 fps=6.2 q=24.8 size=N/A time=00:00:12.17 bitrate=N/A    frame=  368 fps=6.2 q=24.8 size=N/A time=00:00:12.27 bitrate=N/A    frame=  372 fps=6.2 q=24.8 size=N/A time=00:00:12.41 bitrate=N/A    frame=  376 fps=6.2 q=24.8 size=N/A time=00:00:12.54 bitrate=N/A    frame=  380 fps=6.2 q=24.8 size=N/A time=00:00:12.67 bitrate=N/A    frame=  384 fps=6.2 q=24.8 size=N/A time=00:00:12.81 bitrate=N/A    frame=  388 fps=6.2 q=24.8 size=N/A time=00:00:12.94 bitrate=N/A    frame=  391 fps=6.2 q=24.8 size=N/A time=00:00:13.04 bitrate=N/A    frame=  395 fps=6.2 q=24.8 size=N/A time=00:00:13.17 bitrate=N/A    frame=  399 fps=6.2 q=24.8 size=N/A time=00:00:13.31 bitrate=N/A    frame=  403 fps=6.2 q=24.8 size=N/A time=00:00:13.44 bitrate=N/A    frame=  407 fps=6.2 q=24.8 size=N/A time=00:00:13.58 bitrate=N/A    frame=  411 fps=6.3 q=24.8 size=N/A time=00:00:13.71 bitrate=N/A    frame=  415 fps=6.3 q=24.8 size=N/A time=00:00:13.84 bitrate=N/A    frame=  419 fps=6.3 q=24.8 size=N/A time=00:00:13.98 bitrate=N/A    frame=  422 fps=6.3 q=24.8 size=N/A time=00:00:14.08 bitrate=N/A    frame=  425 fps=6.2 q=24.8 size=N/A time=00:00:14.18 bitrate=N/A    frame=  429 fps=6.2 q=24.8 size=N/A time=00:00:14.31 bitrate=N/A    frame=  433 fps=6.2 q=24.8 size=N/A time=00:00:14.44 bitrate=N/A    frame=  437 fps=6.3 q=24.8 size=N/A time=00:00:14.58 bitrate=N/A    frame=  441 fps=6.3 q=24.8 size=N/A time=00:00:14.71 bitrate=N/A    frame=  445 fps=6.3 q=24.8 size=N/A time=00:00:14.84 bitrate=N/A    frame=  449 fps=6.3 q=24.8 size=N/A time=00:00:14.98 bitrate=N/A    frame=  452 fps=6.3 q=24.8 size=N/A time=00:00:15.08 bitrate=N/A    frame=  455 fps=6.2 q=24.8 size=N/A time=00:00:15.18 bitrate=N/A    frame=  458 fps=6.2 q=24.8 size=N/A time=00:00:15.28 bitrate=N/A    frame=  462 fps=6.3 q=24.8 size=N/A time=00:00:15.41 bitrate=N/A    frame=  466 fps=6.3 q=24.8 size=N/A time=00:00:15.54 bitrate=N/A    frame=  470 fps=6.3 q=24.8 size=N/A time=00:00:15.68 bitrate=N/A    frame=  474 fps=6.3 q=24.8 size=N/A time=00:00:15.81 bitrate=N/A    frame=  478 fps=6.3 q=24.8 size=N/A time=00:00:15.94 bitrate=N/A    frame=  481 fps=6.3 q=24.8 size=N/A time=00:00:16.04 bitrate=N/A    frame=  484 fps=6.3 q=24.8 size=N/A time=00:00:16.14 bitrate=N/A    frame=  488 fps=6.3 q=24.8 size=N/A time=00:00:16.28 bitrate=N/A    frame=  492 fps=6.3 q=24.8 size=N/A time=00:00:16.41 bitrate=N/A    frame=  495 fps=6.3 q=24.8 size=N/A time=00:00:16.51 bitrate=N/A    frame=  499 fps=6.3 q=24.8 size=N/A time=00:00:16.64 bitrate=N/A    frame=  503 fps=6.3 q=24.8 size=N/A time=00:00:16.78 bitrate=N/A    frame=  506 fps=6.3 q=24.8 size=N/A time=00:00:16.88 bitrate=N/A    frame=  509 fps=6.2 q=24.8 size=N/A time=00:00:16.98 bitrate=N/A    frame=  512 fps=6.2 q=24.8 size=N/A time=00:00:17.08 bitrate=N/A    frame=  515 fps=6.2 q=24.8 size=N/A time=00:00:17.18 bitrate=N/A    frame=  519 fps=6.2 q=24.8 size=N/A time=00:00:17.31 bitrate=N/A    frame=  522 fps=6.2 q=24.8 size=N/A time=00:00:17.41 bitrate=N/A    frame=  525 fps=6.2 q=24.8 size=N/A time=00:00:17.51 bitrate=N/A    frame=  529 fps=6.2 q=24.8 size=N/A time=00:00:17.65 bitrate=N/A    frame=  533 fps=6.2 q=24.8 size=N/A time=00:00:17.78 bitrate=N/A    frame=  536 fps=6.2 q=24.8 size=N/A time=00:00:17.88 bitrate=N/A    frame=  540 fps=6.2 q=24.8 size=N/A time=00:00:18.01 bitrate=N/A    frame=  543 fps=6.2 q=24.8 size=N/A time=00:00:18.11 bitrate=N/A    frame=  547 fps=6.2 q=24.8 size=N/A time=00:00:18.25 bitrate=N/A    frame=  551 fps=6.2 q=24.8 size=N/A time=00:00:18.38 bitrate=N/A    frame=  555 fps=6.3 q=24.8 size=N/A time=00:00:18.51 bitrate=N/A    frame=  559 fps=6.3 q=24.8 size=N/A time=00:00:18.65 bitrate=N/A    frame=  563 fps=6.3 q=24.8 size=N/A time=00:00:18.78 bitrate=N/A    frame=  567 fps=6.3 q=24.8 size=N/A time=00:00:18.91 bitrate=N/A    frame=  570 fps=6.2 q=24.8 size=N/A time=00:00:19.01 bitrate=N/A    frame=  574 fps=6.3 q=24.8 size=N/A time=00:00:19.15 bitrate=N/A    frame=  577 fps=6.3 q=24.8 size=N/A time=00:00:19.25 bitrate=N/A    frame=  581 fps=6.3 q=24.8 size=N/A time=00:00:19.38 bitrate=N/A    frame=  585 fps=6.3 q=24.8 size=N/A time=00:00:19.51 bitrate=N/A    frame=  589 fps=6.3 q=24.8 size=N/A time=00:00:19.65 bitrate=N/A    frame=  592 fps=6.2 q=24.8 size=N/A time=00:00:19.75 bitrate=N/A    frame=  595 fps=6.2 q=24.8 size=N/A time=00:00:19.85 bitrate=N/A    frame=  599 fps=6.2 q=24.8 size=N/A time=00:00:19.98 bitrate=N/A    frame=  603 fps=6.3 q=24.8 size=N/A time=00:00:20.12 bitrate=N/A    frame=  607 fps=6.3 q=24.8 size=N/A time=00:00:20.25 bitrate=N/A    frame=  611 fps=6.3 q=24.8 size=N/A time=00:00:20.38 bitrate=N/A    frame=  615 fps=6.3 q=24.8 size=N/A time=00:00:20.52 bitrate=N/A    frame=  619 fps=6.3 q=24.8 size=N/A time=00:00:20.65 bitrate=N/A    frame=  623 fps=6.3 q=24.8 size=N/A time=00:00:20.78 bitrate=N/A    frame=  627 fps=6.3 q=24.8 size=N/A time=00:00:20.92 bitrate=N/A    frame=  631 fps=6.3 q=24.8 size=N/A time=00:00:21.05 bitrate=N/A    frame=  635 fps=6.3 q=24.8 size=N/A time=00:00:21.18 bitrate=N/A    frame=  639 fps=6.3 q=24.8 size=N/A time=00:00:21.32 bitrate=N/A    frame=  643 fps=6.3 q=24.8 size=N/A time=00:00:21.45 bitrate=N/A    frame=  647 fps=6.3 q=24.8 size=N/A time=00:00:21.58 bitrate=N/A    frame=  651 fps=6.3 q=24.8 size=N/A time=00:00:21.72 bitrate=N/A    frame=  655 fps=6.3 q=24.8 size=N/A time=00:00:21.85 bitrate=N/A    frame=  659 fps=6.3 q=24.8 size=N/A time=00:00:21.98 bitrate=N/A    frame=  663 fps=6.3 q=24.8 size=N/A time=00:00:22.12 bitrate=N/A    frame=  667 fps=6.3 q=24.8 size=N/A time=00:00:22.25 bitrate=N/A    frame=  671 fps=6.4 q=24.8 size=N/A time=00:00:22.38 bitrate=N/A    frame=  675 fps=6.4 q=24.8 size=N/A time=00:00:22.52 bitrate=N/A    frame=  679 fps=6.4 q=24.8 size=N/A time=00:00:22.65 bitrate=N/A    frame=  683 fps=6.4 q=24.8 size=N/A time=00:00:22.78 bitrate=N/A    frame=  687 fps=6.4 q=24.8 size=N/A time=00:00:22.92 bitrate=N/A    frame=  691 fps=6.4 q=24.8 size=N/A time=00:00:23.05 bitrate=N/A    frame=  695 fps=6.4 q=24.8 size=N/A time=00:00:23.18 bitrate=N/A    frame=  699 fps=6.4 q=24.8 size=N/A time=00:00:23.32 bitrate=N/A    frame=  703 fps=6.4 q=24.8 size=N/A time=00:00:23.45 bitrate=N/A    frame=  707 fps=6.4 q=24.8 size=N/A time=00:00:23.59 bitrate=N/A    frame=  711 fps=6.4 q=24.8 size=N/A time=00:00:23.72 bitrate=N/A    frame=  715 fps=6.4 q=24.8 size=N/A time=00:00:23.85 bitrate=N/A    frame=  719 fps=6.4 q=24.8 size=N/A time=00:00:23.99 bitrate=N/A    frame=  723 fps=6.4 q=24.8 size=N/A time=00:00:24.12 bitrate=N/A    frame=  727 fps=6.4 q=24.8 size=N/A time=00:00:24.25 bitrate=N/A    frame=  731 fps=6.4 q=24.8 size=N/A time=00:00:24.39 bitrate=N/A    frame=  735 fps=6.4 q=24.8 size=N/A time=00:00:24.52 bitrate=N/A    frame=  739 fps=6.4 q=24.8 size=N/A time=00:00:24.65 bitrate=N/A    frame=  743 fps=6.5 q=24.8 size=N/A time=00:00:24.79 bitrate=N/A    frame=  747 fps=6.5 q=24.8 size=N/A time=00:00:24.92 bitrate=N/A    frame=  751 fps=6.5 q=24.8 size=N/A time=00:00:25.05 bitrate=N/A    frame=  755 fps=6.5 q=24.8 size=N/A time=00:00:25.19 bitrate=N/A    frame=  759 fps=6.5 q=24.8 size=N/A time=00:00:25.32 bitrate=N/A    frame=  763 fps=6.5 q=24.8 size=N/A time=00:00:25.45 bitrate=N/A    frame=  767 fps=6.5 q=24.8 size=N/A time=00:00:25.59 bitrate=N/A    frame=  771 fps=6.5 q=24.8 size=N/A time=00:00:25.72 bitrate=N/A    frame=  775 fps=6.5 q=24.8 size=N/A time=00:00:25.85 bitrate=N/A    frame=  779 fps=6.5 q=24.8 size=N/A time=00:00:25.99 bitrate=N/A    frame=  783 fps=6.5 q=24.8 size=N/A time=00:00:26.12 bitrate=N/A    frame=  787 fps=6.5 q=24.8 size=N/A time=00:00:26.25 bitrate=N/A    frame=  791 fps=6.5 q=24.8 size=N/A time=00:00:26.39 bitrate=N/A    frame=  795 fps=6.5 q=24.8 size=N/A time=00:00:26.52 bitrate=N/A    frame=  799 fps=6.5 q=24.8 size=N/A time=00:00:26.65 bitrate=N/A    frame=  803 fps=6.5 q=24.8 size=N/A time=00:00:26.79 bitrate=N/A    frame=  807 fps=6.5 q=24.8 size=N/A time=00:00:26.92 bitrate=N/A    frame=  811 fps=6.5 q=24.8 size=N/A time=00:00:27.06 bitrate=N/A    frame=  815 fps=6.5 q=24.8 size=N/A time=00:00:27.19 bitrate=N/A    frame=  819 fps=6.5 q=24.8 size=N/A time=00:00:27.32 bitrate=N/A    frame=  823 fps=6.5 q=24.8 size=N/A time=00:00:27.46 bitrate=N/A    frame=  827 fps=6.5 q=24.8 size=N/A time=00:00:27.59 bitrate=N/A    frame=  831 fps=6.6 q=24.8 size=N/A time=00:00:27.72 bitrate=N/A    frame=  835 fps=6.6 q=24.8 size=N/A time=00:00:27.86 bitrate=N/A    frame=  839 fps=6.6 q=24.8 size=N/A time=00:00:27.99 bitrate=N/A    frame=  842 fps=6.6 q=24.8 size=N/A time=00:00:28.09 bitrate=N/A    frame=  846 fps=6.6 q=24.8 size=N/A time=00:00:28.22 bitrate=N/A    frame=  850 fps=6.6 q=24.8 size=N/A time=00:00:28.36 bitrate=N/A    frame=  854 fps=6.6 q=24.8 size=N/A time=00:00:28.49 bitrate=N/A    frame=  858 fps=6.6 q=24.8 size=N/A time=00:00:28.62 bitrate=N/A    frame=  862 fps=6.6 q=24.8 size=N/A time=00:00:28.76 bitrate=N/A    frame=  866 fps=6.6 q=24.8 size=N/A time=00:00:28.89 bitrate=N/A    frame=  870 fps=6.6 q=24.8 size=N/A time=00:00:29.02 bitrate=N/A    frame=  874 fps=6.6 q=24.8 size=N/A time=00:00:29.16 bitrate=N/A    frame=  878 fps=6.6 q=24.8 size=N/A time=00:00:29.29 bitrate=N/A    frame=  882 fps=6.6 q=24.8 size=N/A time=00:00:29.42 bitrate=N/A    frame=  886 fps=6.6 q=24.8 size=N/A time=00:00:29.56 bitrate=N/A    frame=  890 fps=6.6 q=24.8 size=N/A time=00:00:29.69 bitrate=N/A    frame=  894 fps=6.6 q=24.8 size=N/A time=00:00:29.82 bitrate=N/A    frame=  898 fps=6.6 q=24.8 size=N/A time=00:00:29.96 bitrate=N/A    frame=  901 fps=6.6 q=24.8 size=N/A time=00:00:30.06 bitrate=N/A    frame=  905 fps=6.6 q=24.8 size=N/A time=00:00:30.19 bitrate=N/A    frame=  909 fps=6.6 q=24.8 size=N/A time=00:00:30.33 bitrate=N/A    frame=  913 fps=6.6 q=24.8 size=N/A time=00:00:30.46 bitrate=N/A    frame=  917 fps=6.6 q=24.8 size=N/A time=00:00:30.59 bitrate=N/A    frame=  921 fps=6.6 q=24.8 size=N/A time=00:00:30.73 bitrate=N/A    frame=  925 fps=6.6 q=24.8 size=N/A time=00:00:30.86 bitrate=N/A    frame=  929 fps=6.6 q=24.8 size=N/A time=00:00:30.99 bitrate=N/A    frame=  933 fps=6.6 q=24.8 size=N/A time=00:00:31.13 bitrate=N/A    frame=  937 fps=6.6 q=24.8 size=N/A time=00:00:31.26 bitrate=N/A    frame=  941 fps=6.6 q=24.8 size=N/A time=00:00:31.39 bitrate=N/A    frame=  945 fps=6.7 q=24.8 size=N/A time=00:00:31.53 bitrate=N/A    frame=  949 fps=6.7 q=24.8 size=N/A time=00:00:31.66 bitrate=N/A    frame=  953 fps=6.7 q=24.8 size=N/A time=00:00:31.79 bitrate=N/A    frame=  957 fps=6.7 q=24.8 size=N/A time=00:00:31.93 bitrate=N/A    frame=  961 fps=6.7 q=24.8 size=N/A time=00:00:32.06 bitrate=N/A    frame=  965 fps=6.7 q=24.8 size=N/A time=00:00:32.19 bitrate=N/A    frame=  969 fps=6.7 q=24.8 size=N/A time=00:00:32.33 bitrate=N/A    frame=  973 fps=6.7 q=24.8 size=N/A time=00:00:32.46 bitrate=N/A    frame=  977 fps=6.7 q=24.8 size=N/A time=00:00:32.59 bitrate=N/A    frame=  981 fps=6.7 q=24.8 size=N/A time=00:00:32.73 bitrate=N/A    frame=  985 fps=6.7 q=24.8 size=N/A time=00:00:32.86 bitrate=N/A    frame=  989 fps=6.7 q=24.8 size=N/A time=00:00:32.99 bitrate=N/A    frame=  992 fps=6.7 q=24.8 size=N/A time=00:00:33.09 bitrate=N/A    frame=  996 fps=6.7 q=24.8 size=N/A time=00:00:33.23 bitrate=N/A    frame= 1000 fps=6.7 q=24.8 size=N/A time=00:00:33.36 bitrate=N/A    frame= 1004 fps=6.7 q=24.8 size=N/A time=00:00:33.50 bitrate=N/A    frame= 1008 fps=6.7 q=24.8 size=N/A time=00:00:33.63 bitrate=N/A    frame= 1012 fps=6.7 q=24.8 size=N/A time=00:00:33.76 bitrate=N/A    frame= 1016 fps=6.7 q=24.8 size=N/A time=00:00:33.90 bitrate=N/A    frame= 1020 fps=6.7 q=24.8 size=N/A time=00:00:34.03 bitrate=N/A    frame= 1024 fps=6.7 q=24.8 size=N/A time=00:00:34.16 bitrate=N/A    frame= 1028 fps=6.7 q=24.8 size=N/A time=00:00:34.30 bitrate=N/A    frame= 1032 fps=6.7 q=24.8 size=N/A time=00:00:34.43 bitrate=N/A    frame= 1036 fps=6.7 q=24.8 size=N/A time=00:00:34.56 bitrate=N/A    frame= 1040 fps=6.7 q=24.8 size=N/A time=00:00:34.70 bitrate=N/A    frame= 1044 fps=6.7 q=24.8 size=N/A time=00:00:34.83 bitrate=N/A    frame= 1048 fps=6.7 q=24.8 size=N/A time=00:00:34.96 bitrate=N/A    frame= 1052 fps=6.7 q=24.8 size=N/A time=00:00:35.10 bitrate=N/A    frame= 1056 fps=6.7 q=24.8 size=N/A time=00:00:35.23 bitrate=N/A    frame= 1060 fps=6.7 q=24.8 size=N/A time=00:00:35.36 bitrate=N/A    frame= 1064 fps=6.7 q=24.8 size=N/A time=00:00:35.50 bitrate=N/A    frame= 1068 fps=6.7 q=24.8 size=N/A time=00:00:35.63 bitrate=N/A    frame= 1072 fps=6.7 q=24.8 size=N/A time=00:00:35.76 bitrate=N/A    frame= 1076 fps=6.8 q=24.8 size=N/A time=00:00:35.90 bitrate=N/A    frame= 1080 fps=6.8 q=24.8 size=N/A time=00:00:36.03 bitrate=N/A    frame= 1083 fps=6.8 q=24.8 size=N/A time=00:00:36.13 bitrate=N/A    frame= 1087 fps=6.8 q=24.8 size=N/A time=00:00:36.26 bitrate=N/A    frame= 1091 fps=6.8 q=24.8 size=N/A time=00:00:36.40 bitrate=N/A    frame= 1095 fps=6.8 q=24.8 size=N/A time=00:00:36.53 bitrate=N/A    frame= 1099 fps=6.8 q=24.8 size=N/A time=00:00:36.66 bitrate=N/A    frame= 1103 fps=6.8 q=24.8 size=N/A time=00:00:36.80 bitrate=N/A    frame= 1107 fps=6.8 q=24.8 size=N/A time=00:00:36.93 bitrate=N/A    frame= 1111 fps=6.8 q=24.8 size=N/A time=00:00:37.07 bitrate=N/A    frame= 1115 fps=6.8 q=24.8 size=N/A time=00:00:37.20 bitrate=N/A    frame= 1119 fps=6.8 q=24.8 size=N/A time=00:00:37.33 bitrate=N/A    frame= 1123 fps=6.8 q=24.8 size=N/A time=00:00:37.47 bitrate=N/A    frame= 1127 fps=6.8 q=24.8 size=N/A time=00:00:37.60 bitrate=N/A    frame= 1131 fps=6.8 q=24.8 size=N/A time=00:00:37.73 bitrate=N/A    frame= 1135 fps=6.8 q=24.8 size=N/A time=00:00:37.87 bitrate=N/A    frame= 1139 fps=6.8 q=24.8 size=N/A time=00:00:38.00 bitrate=N/A    frame= 1143 fps=6.8 q=24.8 size=N/A time=00:00:38.13 bitrate=N/A    frame= 1147 fps=6.8 q=24.8 size=N/A time=00:00:38.27 bitrate=N/A    frame= 1151 fps=6.8 q=24.8 size=N/A time=00:00:38.40 bitrate=N/A    frame= 1155 fps=6.8 q=24.8 size=N/A time=00:00:38.53 bitrate=N/A    frame= 1159 fps=6.8 q=24.8 size=N/A time=00:00:38.67 bitrate=N/A    frame= 1163 fps=6.8 q=24.8 size=N/A time=00:00:38.80 bitrate=N/A    frame= 1167 fps=6.8 q=24.8 size=N/A time=00:00:38.93 bitrate=N/A    frame= 1171 fps=6.8 q=24.8 size=N/A time=00:00:39.07 bitrate=N/A    frame= 1175 fps=6.8 q=24.8 size=N/A time=00:00:39.20 bitrate=N/A    frame= 1179 fps=6.8 q=24.8 size=N/A time=00:00:39.33 bitrate=N/A    frame= 1183 fps=6.8 q=24.8 size=N/A time=00:00:39.47 bitrate=N/A    frame= 1187 fps=6.8 q=24.8 size=N/A time=00:00:39.60 bitrate=N/A    frame= 1191 fps=6.8 q=24.8 size=N/A time=00:00:39.73 bitrate=N/A    frame= 1195 fps=6.8 q=24.8 size=N/A time=00:00:39.87 bitrate=N/A    frame= 1199 fps=6.8 q=24.8 size=N/A time=00:00:40.00 bitrate=N/A    frame= 1203 fps=6.8 q=24.8 size=N/A time=00:00:40.14 bitrate=N/A    frame= 1207 fps=6.8 q=24.8 size=N/A time=00:00:40.27 bitrate=N/A    frame= 1211 fps=6.8 q=24.8 size=N/A time=00:00:40.40 bitrate=N/A    frame= 1215 fps=6.8 q=24.8 size=N/A time=00:00:40.54 bitrate=N/A    frame= 1219 fps=6.8 q=24.8 size=N/A time=00:00:40.67 bitrate=N/A    frame= 1223 fps=6.8 q=24.8 size=N/A time=00:00:40.80 bitrate=N/A    frame= 1227 fps=6.8 q=24.8 size=N/A time=00:00:40.94 bitrate=N/A    frame= 1231 fps=6.8 q=24.8 size=N/A time=00:00:41.07 bitrate=N/A    frame= 1235 fps=6.8 q=24.8 size=N/A time=00:00:41.20 bitrate=N/A    frame= 1239 fps=6.8 q=24.8 size=N/A time=00:00:41.34 bitrate=N/A    frame= 1243 fps=6.8 q=24.8 size=N/A time=00:00:41.47 bitrate=N/A    frame= 1247 fps=6.8 q=24.8 size=N/A time=00:00:41.60 bitrate=N/A    frame= 1251 fps=6.8 q=24.8 size=N/A time=00:00:41.74 bitrate=N/A    frame= 1255 fps=6.8 q=24.8 size=N/A time=00:00:41.87 bitrate=N/A    frame= 1259 fps=6.9 q=24.8 size=N/A time=00:00:42.00 bitrate=N/A    frame= 1263 fps=6.9 q=24.8 size=N/A time=00:00:42.14 bitrate=N/A    frame= 1267 fps=6.9 q=24.8 size=N/A time=00:00:42.27 bitrate=N/A    frame= 1271 fps=6.9 q=24.8 size=N/A time=00:00:42.40 bitrate=N/A    frame= 1275 fps=6.9 q=24.8 size=N/A time=00:00:42.54 bitrate=N/A    frame= 1279 fps=6.9 q=24.8 size=N/A time=00:00:42.67 bitrate=N/A    frame= 1283 fps=6.9 q=24.8 size=N/A time=00:00:42.80 bitrate=N/A    frame= 1287 fps=6.9 q=24.8 size=N/A time=00:00:42.94 bitrate=N/A    frame= 1291 fps=6.9 q=24.8 size=N/A time=00:00:43.07 bitrate=N/A    frame= 1295 fps=6.9 q=24.8 size=N/A time=00:00:43.20 bitrate=N/A    frame= 1299 fps=6.9 q=24.8 size=N/A time=00:00:43.34 bitrate=N/A    frame= 1303 fps=6.9 q=24.8 size=N/A time=00:00:43.47 bitrate=N/A    frame= 1307 fps=6.9 q=24.8 size=N/A time=00:00:43.61 bitrate=N/A    frame= 1311 fps=6.9 q=24.8 size=N/A time=00:00:43.74 bitrate=N/A    frame= 1315 fps=6.9 q=24.8 size=N/A time=00:00:43.87 bitrate=N/A    frame= 1319 fps=6.9 q=24.8 size=N/A time=00:00:44.01 bitrate=N/A    frame= 1323 fps=6.9 q=24.8 size=N/A time=00:00:44.14 bitrate=N/A    frame= 1327 fps=6.9 q=24.8 size=N/A time=00:00:44.27 bitrate=N/A    frame= 1331 fps=6.9 q=24.8 size=N/A time=00:00:44.41 bitrate=N/A    frame= 1335 fps=6.9 q=24.8 size=N/A time=00:00:44.54 bitrate=N/A    frame= 1339 fps=6.9 q=24.8 size=N/A time=00:00:44.67 bitrate=N/A    frame= 1343 fps=6.9 q=24.8 size=N/A time=00:00:44.81 bitrate=N/A    frame= 1347 fps=6.9 q=24.8 size=N/A time=00:00:44.94 bitrate=N/A    frame= 1350 fps=6.9 q=24.8 size=N/A time=00:00:45.04 bitrate=N/A    frame= 1354 fps=6.9 q=24.8 size=N/A time=00:00:45.17 bitrate=N/A    frame= 1358 fps=6.9 q=24.8 size=N/A time=00:00:45.31 bitrate=N/A    frame= 1362 fps=6.9 q=24.8 size=N/A time=00:00:45.44 bitrate=N/A    frame= 1366 fps=6.9 q=24.8 size=N/A time=00:00:45.57 bitrate=N/A    frame= 1370 fps=6.9 q=24.8 size=N/A time=00:00:45.71 bitrate=N/A    frame= 1374 fps=6.9 q=24.8 size=N/A time=00:00:45.84 bitrate=N/A    frame= 1378 fps=6.9 q=24.8 size=N/A time=00:00:45.97 bitrate=N/A    frame= 1382 fps=6.9 q=24.8 size=N/A time=00:00:46.11 bitrate=N/A    frame= 1386 fps=6.9 q=24.8 size=N/A time=00:00:46.24 bitrate=N/A    frame= 1390 fps=6.9 q=24.8 size=N/A time=00:00:46.37 bitrate=N/A    frame= 1394 fps=6.9 q=24.8 size=N/A time=00:00:46.51 bitrate=N/A    frame= 1398 fps=6.9 q=24.8 size=N/A time=00:00:46.64 bitrate=N/A    frame= 1402 fps=6.9 q=24.8 size=N/A time=00:00:46.78 bitrate=N/A    frame= 1406 fps=6.9 q=24.8 size=N/A time=00:00:46.91 bitrate=N/A    frame= 1410 fps=6.9 q=24.8 size=N/A time=00:00:47.04 bitrate=N/A    frame= 1414 fps=6.9 q=24.8 size=N/A time=00:00:47.18 bitrate=N/A    frame= 1418 fps=6.9 q=24.8 size=N/A time=00:00:47.31 bitrate=N/A    frame= 1422 fps=6.9 q=24.8 size=N/A time=00:00:47.44 bitrate=N/A    frame= 1426 fps=6.9 q=24.8 size=N/A time=00:00:47.58 bitrate=N/A    frame= 1430 fps=6.9 q=24.8 size=N/A time=00:00:47.71 bitrate=N/A    frame= 1434 fps=6.9 q=24.8 size=N/A time=00:00:47.84 bitrate=N/A    frame= 1438 fps=6.9 q=24.8 size=N/A time=00:00:47.98 bitrate=N/A    frame= 1441 fps=6.9 q=24.8 size=N/A time=00:00:48.08 bitrate=N/A    frame= 1445 fps=6.9 q=24.8 size=N/A time=00:00:48.21 bitrate=N/A    frame= 1449 fps=6.9 q=24.8 size=N/A time=00:00:48.34 bitrate=N/A    frame= 1453 fps=6.9 q=24.8 size=N/A time=00:00:48.48 bitrate=N/A    frame= 1457 fps=6.9 q=24.8 size=N/A time=00:00:48.61 bitrate=N/A    frame= 1461 fps=6.9 q=24.8 size=N/A time=00:00:48.74 bitrate=N/A    frame= 1465 fps=6.9 q=24.8 size=N/A time=00:00:48.88 bitrate=N/A    frame= 1469 fps=6.9 q=24.8 size=N/A time=00:00:49.01 bitrate=N/A    frame= 1473 fps=6.9 q=24.8 size=N/A time=00:00:49.14 bitrate=N/A    frame= 1477 fps=6.9 q=24.8 size=N/A time=00:00:49.28 bitrate=N/A    frame= 1481 fps=6.9 q=24.8 size=N/A time=00:00:49.41 bitrate=N/A    frame= 1485 fps=6.9 q=24.8 size=N/A time=00:00:49.54 bitrate=N/A    frame= 1489 fps=6.9 q=24.8 size=N/A time=00:00:49.68 bitrate=N/A    frame= 1493 fps=6.9 q=24.8 size=N/A time=00:00:49.81 bitrate=N/A    frame= 1497 fps=6.9 q=24.8 size=N/A time=00:00:49.94 bitrate=N/A    frame= 1501 fps=6.9 q=24.8 size=N/A time=00:00:50.08 bitrate=N/A    frame= 1505 fps=6.9 q=24.8 size=N/A time=00:00:50.21 bitrate=N/A    frame= 1509 fps=6.9 q=24.8 size=N/A time=00:00:50.35 bitrate=N/A    frame= 1513 fps=7.0 q=24.8 size=N/A time=00:00:50.48 bitrate=N/A    frame= 1517 fps=7.0 q=24.8 size=N/A time=00:00:50.61 bitrate=N/A    frame= 1521 fps=7.0 q=24.8 size=N/A time=00:00:50.75 bitrate=N/A    frame= 1525 fps=7.0 q=24.8 size=N/A time=00:00:50.88 bitrate=N/A    frame= 1529 fps=7.0 q=24.8 size=N/A time=00:00:51.01 bitrate=N/A    frame= 1533 fps=7.0 q=24.8 size=N/A time=00:00:51.15 bitrate=N/A    frame= 1537 fps=7.0 q=24.8 size=N/A time=00:00:51.28 bitrate=N/A    frame= 1541 fps=7.0 q=24.8 size=N/A time=00:00:51.41 bitrate=N/A    frame= 1545 fps=7.0 q=24.8 size=N/A time=00:00:51.55 bitrate=N/A    frame= 1549 fps=7.0 q=24.8 size=N/A time=00:00:51.68 bitrate=N/A    frame= 1553 fps=7.0 q=24.8 size=N/A time=00:00:51.81 bitrate=N/A    frame= 1557 fps=7.0 q=24.8 size=N/A time=00:00:51.95 bitrate=N/A    frame= 1561 fps=7.0 q=24.8 size=N/A time=00:00:52.08 bitrate=N/A    frame= 1565 fps=7.0 q=24.8 size=N/A time=00:00:52.21 bitrate=N/A    frame= 1569 fps=7.0 q=24.8 size=N/A time=00:00:52.35 bitrate=N/A    frame= 1573 fps=7.0 q=24.8 size=N/A time=00:00:52.48 bitrate=N/A    frame= 1577 fps=7.0 q=24.8 size=N/A time=00:00:52.61 bitrate=N/A    frame= 1581 fps=7.0 q=24.8 size=N/A time=00:00:52.75 bitrate=N/A    frame= 1585 fps=7.0 q=24.8 size=N/A time=00:00:52.88 bitrate=N/A    frame= 1589 fps=7.0 q=24.8 size=N/A time=00:00:53.01 bitrate=N/A    frame= 1593 fps=7.0 q=24.8 size=N/A time=00:00:53.15 bitrate=N/A    frame= 1597 fps=7.0 q=24.8 size=N/A time=00:00:53.28 bitrate=N/A    frame= 1601 fps=7.0 q=24.8 size=N/A time=00:00:53.42 bitrate=N/A    frame= 1605 fps=7.0 q=24.8 size=N/A time=00:00:53.55 bitrate=N/A    frame= 1609 fps=7.0 q=24.8 size=N/A time=00:00:53.68 bitrate=N/A    frame= 1613 fps=7.0 q=24.8 size=N/A time=00:00:53.82 bitrate=N/A    frame= 1617 fps=7.0 q=24.8 size=N/A time=00:00:53.95 bitrate=N/A    frame= 1621 fps=7.0 q=24.8 size=N/A time=00:00:54.08 bitrate=N/A    frame= 1625 fps=7.0 q=24.8 size=N/A time=00:00:54.22 bitrate=N/A    frame= 1629 fps=7.0 q=24.8 size=N/A time=00:00:54.35 bitrate=N/A    frame= 1633 fps=7.0 q=24.8 size=N/A time=00:00:54.48 bitrate=N/A    frame= 1637 fps=7.0 q=24.8 size=N/A time=00:00:54.62 bitrate=N/A    frame= 1641 fps=7.0 q=24.8 size=N/A time=00:00:54.75 bitrate=N/A    frame= 1645 fps=7.0 q=24.8 size=N/A time=00:00:54.88 bitrate=N/A    frame= 1649 fps=7.0 q=24.8 size=N/A time=00:00:55.02 bitrate=N/A    frame= 1653 fps=7.0 q=24.8 size=N/A time=00:00:55.15 bitrate=N/A    frame= 1657 fps=7.0 q=24.8 size=N/A time=00:00:55.28 bitrate=N/A    frame= 1661 fps=7.0 q=24.8 size=N/A time=00:00:55.42 bitrate=N/A    frame= 1665 fps=7.0 q=24.8 size=N/A time=00:00:55.55 bitrate=N/A    frame= 1669 fps=7.0 q=24.8 size=N/A time=00:00:55.68 bitrate=N/A    frame= 1673 fps=7.0 q=24.8 size=N/A time=00:00:55.82 bitrate=N/A    frame= 1677 fps=7.0 q=24.8 size=N/A time=00:00:55.95 bitrate=N/A    frame= 1681 fps=7.0 q=24.8 size=N/A time=00:00:56.08 bitrate=N/A    frame= 1685 fps=7.0 q=24.8 size=N/A time=00:00:56.22 bitrate=N/A    frame= 1689 fps=7.0 q=24.8 size=N/A time=00:00:56.35 bitrate=N/A    frame= 1693 fps=7.0 q=24.8 size=N/A time=00:00:56.48 bitrate=N/A    frame= 1697 fps=7.0 q=24.8 size=N/A time=00:00:56.62 bitrate=N/A    frame= 1701 fps=7.0 q=24.8 size=N/A time=00:00:56.75 bitrate=N/A    frame= 1705 fps=7.0 q=24.8 size=N/A time=00:00:56.89 bitrate=N/A    frame= 1709 fps=7.0 q=24.8 size=N/A time=00:00:57.02 bitrate=N/A    frame= 1713 fps=7.0 q=24.8 size=N/A time=00:00:57.15 bitrate=N/A    frame= 1717 fps=7.0 q=24.8 size=N/A time=00:00:57.29 bitrate=N/A    frame= 1721 fps=7.0 q=24.8 size=N/A time=00:00:57.42 bitrate=N/A    frame= 1725 fps=7.0 q=24.8 size=N/A time=00:00:57.55 bitrate=N/A    frame= 1729 fps=7.0 q=24.8 size=N/A time=00:00:57.69 bitrate=N/A    frame= 1733 fps=7.0 q=24.8 size=N/A time=00:00:57.82 bitrate=N/A    frame= 1737 fps=7.0 q=24.8 size=N/A time=00:00:57.95 bitrate=N/A    frame= 1741 fps=7.0 q=24.8 size=N/A time=00:00:58.09 bitrate=N/A    frame= 1745 fps=7.0 q=24.8 size=N/A time=00:00:58.22 bitrate=N/A    frame= 1749 fps=7.0 q=24.8 size=N/A time=00:00:58.35 bitrate=N/A    frame= 1753 fps=7.0 q=24.8 size=N/A time=00:00:58.49 bitrate=N/A    frame= 1757 fps=7.0 q=24.8 size=N/A time=00:00:58.62 bitrate=N/A    frame= 1761 fps=7.0 q=24.8 size=N/A time=00:00:58.75 bitrate=N/A    frame= 1765 fps=7.0 q=24.8 size=N/A time=00:00:58.89 bitrate=N/A    frame= 1769 fps=7.0 q=24.8 size=N/A time=00:00:59.02 bitrate=N/A    frame= 1773 fps=7.0 q=24.8 size=N/A time=00:00:59.15 bitrate=N/A    frame= 1777 fps=7.0 q=24.8 size=N/A time=00:00:59.29 bitrate=N/A    frame= 1781 fps=7.0 q=24.8 size=N/A time=00:00:59.42 bitrate=N/A    frame= 1785 fps=7.0 q=24.8 size=N/A time=00:00:59.55 bitrate=N/A    frame= 1789 fps=7.0 q=24.8 size=N/A time=00:00:59.69 bitrate=N/A    frame= 1793 fps=7.0 q=24.8 size=N/A time=00:00:59.82 bitrate=N/A    frame= 1797 fps=7.0 q=24.8 size=N/A time=00:00:59.95 bitrate=N/A    frame= 1801 fps=7.0 q=24.8 size=N/A time=00:01:00.09 bitrate=N/A    frame= 1805 fps=7.0 q=24.8 size=N/A time=00:01:00.22 bitrate=N/A    frame= 1809 fps=7.0 q=24.8 size=N/A time=00:01:00.36 bitrate=N/A    frame= 1813 fps=7.0 q=24.8 size=N/A time=00:01:00.49 bitrate=N/A    frame= 1817 fps=7.0 q=24.8 size=N/A time=00:01:00.62 bitrate=N/A    frame= 1821 fps=7.0 q=24.8 size=N/A time=00:01:00.76 bitrate=N/A    frame= 1825 fps=7.0 q=24.8 size=N/A time=00:01:00.89 bitrate=N/A    frame= 1829 fps=7.0 q=24.8 size=N/A time=00:01:01.02 bitrate=N/A    frame= 1833 fps=7.0 q=24.8 size=N/A time=00:01:01.16 bitrate=N/A    frame= 1837 fps=7.0 q=24.8 size=N/A time=00:01:01.29 bitrate=N/A    frame= 1841 fps=7.0 q=24.8 size=N/A time=00:01:01.42 bitrate=N/A    frame= 1845 fps=7.0 q=24.8 size=N/A time=00:01:01.56 bitrate=N/A    frame= 1849 fps=7.1 q=24.8 size=N/A time=00:01:01.69 bitrate=N/A    frame= 1853 fps=7.1 q=24.8 size=N/A time=00:01:01.82 bitrate=N/A    frame= 1857 fps=7.1 q=24.8 size=N/A time=00:01:01.96 bitrate=N/A    frame= 1861 fps=7.1 q=24.8 size=N/A time=00:01:02.09 bitrate=N/A    frame= 1865 fps=7.1 q=24.8 size=N/A time=00:01:02.22 bitrate=N/A    frame= 1869 fps=7.1 q=24.8 size=N/A time=00:01:02.36 bitrate=N/A    frame= 1873 fps=7.1 q=24.8 size=N/A time=00:01:02.49 bitrate=N/A    frame= 1877 fps=7.1 q=24.8 size=N/A time=00:01:02.62 bitrate=N/A    frame= 1881 fps=7.1 q=24.8 size=N/A time=00:01:02.76 bitrate=N/A    frame= 1885 fps=7.1 q=24.8 size=N/A time=00:01:02.89 bitrate=N/A    frame= 1889 fps=7.1 q=24.8 size=N/A time=00:01:03.02 bitrate=N/A    frame= 1893 fps=7.1 q=24.8 size=N/A time=00:01:03.16 bitrate=N/A    frame= 1897 fps=7.1 q=24.8 size=N/A time=00:01:03.29 bitrate=N/A    frame= 1901 fps=7.1 q=24.8 size=N/A time=00:01:03.43 bitrate=N/A    frame= 1905 fps=7.1 q=24.8 size=N/A time=00:01:03.56 bitrate=N/A    frame= 1909 fps=7.1 q=24.8 size=N/A time=00:01:03.69 bitrate=N/A    frame= 1913 fps=7.1 q=24.8 size=N/A time=00:01:03.83 bitrate=N/A    frame= 1917 fps=7.1 q=24.8 size=N/A time=00:01:03.96 bitrate=N/A    frame= 1921 fps=7.1 q=24.8 size=N/A time=00:01:04.09 bitrate=N/A    frame= 1925 fps=7.1 q=24.8 size=N/A time=00:01:04.23 bitrate=N/A    frame= 1929 fps=7.1 q=24.8 size=N/A time=00:01:04.36 bitrate=N/A    frame= 1933 fps=7.1 q=24.8 size=N/A time=00:01:04.49 bitrate=N/A    frame= 1937 fps=7.1 q=24.8 size=N/A time=00:01:04.63 bitrate=N/A    frame= 1941 fps=7.1 q=24.8 size=N/A time=00:01:04.76 bitrate=N/A    frame= 1945 fps=7.1 q=24.8 size=N/A time=00:01:04.89 bitrate=N/A    frame= 1949 fps=7.1 q=24.8 size=N/A time=00:01:05.03 bitrate=N/A    frame= 1953 fps=7.1 q=24.8 size=N/A time=00:01:05.16 bitrate=N/A    frame= 1957 fps=7.1 q=24.8 size=N/A time=00:01:05.29 bitrate=N/A    frame= 1961 fps=7.1 q=24.8 size=N/A time=00:01:05.43 bitrate=N/A    frame= 1965 fps=7.1 q=24.8 size=N/A time=00:01:05.56 bitrate=N/A    frame= 1969 fps=7.1 q=24.8 size=N/A time=00:01:05.69 bitrate=N/A    frame= 1973 fps=7.1 q=24.8 size=N/A time=00:01:05.83 bitrate=N/A    frame= 1977 fps=7.1 q=24.8 size=N/A time=00:01:05.96 bitrate=N/A    frame= 1981 fps=7.1 q=24.8 size=N/A time=00:01:06.09 bitrate=N/A    frame= 1985 fps=7.1 q=24.8 size=N/A time=00:01:06.23 bitrate=N/A    frame= 1989 fps=7.1 q=24.8 size=N/A time=00:01:06.36 bitrate=N/A    frame= 1993 fps=7.1 q=24.8 size=N/A time=00:01:06.49 bitrate=N/A    frame= 1997 fps=7.1 q=24.8 size=N/A time=00:01:06.63 bitrate=N/A    frame= 2001 fps=7.1 q=24.8 size=N/A time=00:01:06.76 bitrate=N/A    frame= 2005 fps=7.1 q=24.8 size=N/A time=00:01:06.90 bitrate=N/A    frame= 2009 fps=7.1 q=24.8 size=N/A time=00:01:07.03 bitrate=N/A    frame= 2012 fps=7.1 q=24.8 size=N/A time=00:01:07.13 bitrate=N/A    frame= 2016 fps=7.1 q=24.8 size=N/A time=00:01:07.26 bitrate=N/A    frame= 2020 fps=7.1 q=24.8 size=N/A time=00:01:07.40 bitrate=N/A    frame= 2024 fps=7.1 q=24.8 size=N/A time=00:01:07.53 bitrate=N/A    frame= 2028 fps=7.1 q=24.8 size=N/A time=00:01:07.66 bitrate=N/A    frame= 2032 fps=7.1 q=24.8 size=N/A time=00:01:07.80 bitrate=N/A    frame= 2036 fps=7.1 q=24.8 size=N/A time=00:01:07.93 bitrate=N/A    frame= 2040 fps=7.1 q=24.8 size=N/A time=00:01:08.06 bitrate=N/A    frame= 2043 fps=7.1 q=24.8 size=N/A time=00:01:08.16 bitrate=N/A    frame= 2047 fps=7.1 q=24.8 size=N/A time=00:01:08.30 bitrate=N/A    frame= 2051 fps=7.1 q=24.8 size=N/A time=00:01:08.43 bitrate=N/A    frame= 2055 fps=7.1 q=24.8 size=N/A time=00:01:08.56 bitrate=N/A    frame= 2059 fps=7.1 q=24.8 size=N/A time=00:01:08.70 bitrate=N/A    frame= 2063 fps=7.1 q=24.8 size=N/A time=00:01:08.83 bitrate=N/A    frame= 2067 fps=7.1 q=24.8 size=N/A time=00:01:08.96 bitrate=N/A    frame= 2071 fps=7.1 q=24.8 size=N/A time=00:01:09.10 bitrate=N/A    frame= 2075 fps=7.1 q=24.8 size=N/A time=00:01:09.23 bitrate=N/A    frame= 2079 fps=7.1 q=24.8 size=N/A time=00:01:09.36 bitrate=N/A    frame= 2083 fps=7.1 q=24.8 size=N/A time=00:01:09.50 bitrate=N/A    frame= 2087 fps=7.1 q=24.8 size=N/A time=00:01:09.63 bitrate=N/A    frame= 2091 fps=7.1 q=24.8 size=N/A time=00:01:09.76 bitrate=N/A    frame= 2095 fps=7.1 q=24.8 size=N/A time=00:01:09.90 bitrate=N/A    frame= 2099 fps=7.1 q=24.8 size=N/A time=00:01:10.03 bitrate=N/A    frame= 2103 fps=7.1 q=24.8 size=N/A time=00:01:10.17 bitrate=N/A    frame= 2107 fps=7.1 q=24.8 size=N/A time=00:01:10.30 bitrate=N/A    frame= 2111 fps=7.1 q=24.8 size=N/A time=00:01:10.43 bitrate=N/A    frame= 2115 fps=7.1 q=24.8 size=N/A time=00:01:10.57 bitrate=N/A    frame= 2119 fps=7.1 q=24.8 size=N/A time=00:01:10.70 bitrate=N/A    frame= 2123 fps=7.1 q=24.8 size=N/A time=00:01:10.83 bitrate=N/A    frame= 2127 fps=7.1 q=24.8 size=N/A time=00:01:10.97 bitrate=N/A    frame= 2131 fps=7.1 q=24.8 size=N/A time=00:01:11.10 bitrate=N/A    frame= 2135 fps=7.1 q=24.8 size=N/A time=00:01:11.23 bitrate=N/A    frame= 2139 fps=7.1 q=24.8 size=N/A time=00:01:11.37 bitrate=N/A    frame= 2143 fps=7.1 q=24.8 size=N/A time=00:01:11.50 bitrate=N/A    frame= 2147 fps=7.1 q=24.8 size=N/A time=00:01:11.63 bitrate=N/A    frame= 2151 fps=7.1 q=24.8 size=N/A time=00:01:11.77 bitrate=N/A    frame= 2155 fps=7.1 q=24.8 size=N/A time=00:01:11.90 bitrate=N/A    frame= 2159 fps=7.1 q=24.8 size=N/A time=00:01:12.03 bitrate=N/A    frame= 2163 fps=7.1 q=24.8 size=N/A time=00:01:12.17 bitrate=N/A    frame= 2167 fps=7.1 q=24.8 size=N/A time=00:01:12.30 bitrate=N/A    frame= 2171 fps=7.1 q=24.8 size=N/A time=00:01:12.43 bitrate=N/A    frame= 2175 fps=7.1 q=24.8 size=N/A time=00:01:12.57 bitrate=N/A    frame= 2179 fps=7.1 q=24.8 size=N/A time=00:01:12.70 bitrate=N/A    frame= 2183 fps=7.1 q=24.8 size=N/A time=00:01:12.83 bitrate=N/A    frame= 2187 fps=7.1 q=24.8 size=N/A time=00:01:12.97 bitrate=N/A    frame= 2191 fps=7.1 q=24.8 size=N/A time=00:01:13.10 bitrate=N/A    frame= 2195 fps=7.1 q=24.8 size=N/A time=00:01:13.23 bitrate=N/A    frame= 2199 fps=7.1 q=24.8 size=N/A time=00:01:13.37 bitrate=N/A    frame= 2203 fps=7.1 q=24.8 size=N/A time=00:01:13.50 bitrate=N/A    frame= 2207 fps=7.1 q=24.8 size=N/A time=00:01:13.64 bitrate=N/A    frame= 2211 fps=7.1 q=24.8 size=N/A time=00:01:13.77 bitrate=N/A    frame= 2215 fps=7.1 q=24.8 size=N/A time=00:01:13.90 bitrate=N/A    frame= 2219 fps=7.1 q=24.8 size=N/A time=00:01:14.04 bitrate=N/A    frame= 2223 fps=7.1 q=24.8 size=N/A time=00:01:14.17 bitrate=N/A    frame= 2227 fps=7.1 q=24.8 size=N/A time=00:01:14.30 bitrate=N/A    frame= 2231 fps=7.1 q=24.8 size=N/A time=00:01:14.44 bitrate=N/A    frame= 2235 fps=7.1 q=24.8 size=N/A time=00:01:14.57 bitrate=N/A    frame= 2239 fps=7.1 q=24.8 size=N/A time=00:01:14.70 bitrate=N/A    frame= 2243 fps=7.1 q=24.8 size=N/A time=00:01:14.84 bitrate=N/A    frame= 2247 fps=7.1 q=24.8 size=N/A time=00:01:14.97 bitrate=N/A    frame= 2251 fps=7.1 q=24.8 size=N/A time=00:01:15.10 bitrate=N/A    frame= 2255 fps=7.1 q=24.8 size=N/A time=00:01:15.24 bitrate=N/A    frame= 2259 fps=7.1 q=24.8 size=N/A time=00:01:15.37 bitrate=N/A    frame= 2263 fps=7.1 q=24.8 size=N/A time=00:01:15.50 bitrate=N/A    frame= 2267 fps=7.1 q=24.8 size=N/A time=00:01:15.64 bitrate=N/A    frame= 2271 fps=7.1 q=24.8 size=N/A time=00:01:15.77 bitrate=N/A    frame= 2275 fps=7.1 q=24.8 size=N/A time=00:01:15.90 bitrate=N/A    frame= 2279 fps=7.1 q=24.8 size=N/A time=00:01:16.04 bitrate=N/A    frame= 2283 fps=7.1 q=24.8 size=N/A time=00:01:16.17 bitrate=N/A    frame= 2287 fps=7.1 q=24.8 size=N/A time=00:01:16.30 bitrate=N/A    frame= 2291 fps=7.1 q=24.8 size=N/A time=00:01:16.44 bitrate=N/A    frame= 2295 fps=7.1 q=24.8 size=N/A time=00:01:16.57 bitrate=N/A    frame= 2299 fps=7.1 q=24.8 size=N/A time=00:01:16.70 bitrate=N/A    frame= 2303 fps=7.1 q=24.8 size=N/A time=00:01:16.84 bitrate=N/A    frame= 2307 fps=7.1 q=24.8 size=N/A time=00:01:16.97 bitrate=N/A    frame= 2311 fps=7.1 q=24.8 size=N/A time=00:01:17.11 bitrate=N/A    frame= 2315 fps=7.1 q=24.8 size=N/A time=00:01:17.24 bitrate=N/A    frame= 2319 fps=7.1 q=24.8 size=N/A time=00:01:17.37 bitrate=N/A    frame= 2323 fps=7.1 q=24.8 size=N/A time=00:01:17.51 bitrate=N/A    frame= 2327 fps=7.1 q=24.8 size=N/A time=00:01:17.64 bitrate=N/A    frame= 2331 fps=7.1 q=24.8 size=N/A time=00:01:17.77 bitrate=N/A    frame= 2335 fps=7.1 q=24.8 size=N/A time=00:01:17.91 bitrate=N/A    frame= 2339 fps=7.1 q=24.8 size=N/A time=00:01:18.04 bitrate=N/A    frame= 2343 fps=7.1 q=24.8 size=N/A time=00:01:18.17 bitrate=N/A    frame= 2347 fps=7.1 q=24.8 size=N/A time=00:01:18.31 bitrate=N/A    frame= 2351 fps=7.1 q=24.8 size=N/A time=00:01:18.44 bitrate=N/A    frame= 2355 fps=7.1 q=24.8 size=N/A time=00:01:18.57 bitrate=N/A    frame= 2359 fps=7.1 q=24.8 size=N/A time=00:01:18.71 bitrate=N/A    frame= 2363 fps=7.1 q=24.8 size=N/A time=00:01:18.84 bitrate=N/A    frame= 2367 fps=7.1 q=24.8 size=N/A time=00:01:18.97 bitrate=N/A    frame= 2371 fps=7.1 q=24.8 size=N/A time=00:01:19.11 bitrate=N/A    frame= 2375 fps=7.1 q=24.8 size=N/A time=00:01:19.24 bitrate=N/A    frame= 2379 fps=7.1 q=24.8 size=N/A time=00:01:19.37 bitrate=N/A    frame= 2383 fps=7.2 q=24.8 size=N/A time=00:01:19.51 bitrate=N/A    frame= 2387 fps=7.2 q=24.8 size=N/A time=00:01:19.64 bitrate=N/A    frame= 2391 fps=7.2 q=24.8 size=N/A time=00:01:19.77 bitrate=N/A    frame= 2395 fps=7.2 q=24.8 size=N/A time=00:01:19.91 bitrate=N/A    frame= 2399 fps=7.2 q=24.8 size=N/A time=00:01:20.04 bitrate=N/A    frame= 2403 fps=7.2 q=24.8 size=N/A time=00:01:20.18 bitrate=N/A    frame= 2407 fps=7.2 q=24.8 size=N/A time=00:01:20.31 bitrate=N/A    frame= 2411 fps=7.2 q=24.8 size=N/A time=00:01:20.44 bitrate=N/A    frame= 2415 fps=7.2 q=24.8 size=N/A time=00:01:20.58 bitrate=N/A    frame= 2419 fps=7.2 q=24.8 size=N/A time=00:01:20.71 bitrate=N/A    frame= 2423 fps=7.2 q=24.8 size=N/A time=00:01:20.84 bitrate=N/A    frame= 2427 fps=7.2 q=24.8 size=N/A time=00:01:20.98 bitrate=N/A    frame= 2431 fps=7.2 q=24.8 size=N/A time=00:01:21.11 bitrate=N/A    frame= 2435 fps=7.2 q=24.8 size=N/A time=00:01:21.24 bitrate=N/A    frame= 2439 fps=7.2 q=24.8 size=N/A time=00:01:21.38 bitrate=N/A    frame= 2443 fps=7.2 q=24.8 size=N/A time=00:01:21.51 bitrate=N/A    frame= 2447 fps=7.2 q=24.8 size=N/A time=00:01:21.64 bitrate=N/A    frame= 2451 fps=7.2 q=24.8 size=N/A time=00:01:21.78 bitrate=N/A    frame= 2455 fps=7.2 q=24.8 size=N/A time=00:01:21.91 bitrate=N/A    frame= 2459 fps=7.2 q=24.8 size=N/A time=00:01:22.04 bitrate=N/A    frame= 2462 fps=7.2 q=24.8 size=N/A time=00:01:22.14 bitrate=N/A    frame= 2466 fps=7.2 q=24.8 size=N/A time=00:01:22.28 bitrate=N/A    frame= 2470 fps=7.2 q=24.8 size=N/A time=00:01:22.41 bitrate=N/A    frame= 2474 fps=7.2 q=24.8 size=N/A time=00:01:22.54 bitrate=N/A    frame= 2478 fps=7.2 q=24.8 size=N/A time=00:01:22.68 bitrate=N/A    frame= 2482 fps=7.2 q=24.8 size=N/A time=00:01:22.81 bitrate=N/A    frame= 2486 fps=7.2 q=24.8 size=N/A time=00:01:22.94 bitrate=N/A    frame= 2490 fps=7.2 q=24.8 size=N/A time=00:01:23.08 bitrate=N/A    frame= 2494 fps=7.2 q=24.8 size=N/A time=00:01:23.21 bitrate=N/A    frame= 2498 fps=7.2 q=24.8 size=N/A time=00:01:23.34 bitrate=N/A    frame= 2502 fps=7.2 q=24.8 size=N/A time=00:01:23.48 bitrate=N/A    frame= 2506 fps=7.2 q=24.8 size=N/A time=00:01:23.61 bitrate=N/A    frame= 2510 fps=7.2 q=24.8 size=N/A time=00:01:23.75 bitrate=N/A    frame= 2514 fps=7.2 q=24.8 size=N/A time=00:01:23.88 bitrate=N/A    frame= 2518 fps=7.2 q=24.8 size=N/A time=00:01:24.01 bitrate=N/A    frame= 2522 fps=7.2 q=24.8 size=N/A time=00:01:24.15 bitrate=N/A    frame= 2526 fps=7.2 q=24.8 size=N/A time=00:01:24.28 bitrate=N/A    frame= 2530 fps=7.2 q=24.8 size=N/A time=00:01:24.41 bitrate=N/A    frame= 2534 fps=7.2 q=24.8 size=N/A time=00:01:24.55 bitrate=N/A    frame= 2538 fps=7.2 q=24.8 size=N/A time=00:01:24.68 bitrate=N/A    frame= 2542 fps=7.2 q=24.8 size=N/A time=00:01:24.81 bitrate=N/A    frame= 2546 fps=7.2 q=24.8 size=N/A time=00:01:24.95 bitrate=N/A    frame= 2550 fps=7.2 q=24.8 size=N/A time=00:01:25.08 bitrate=N/A    frame= 2554 fps=7.2 q=24.8 size=N/A time=00:01:25.21 bitrate=N/A    frame= 2558 fps=7.2 q=24.8 size=N/A time=00:01:25.35 bitrate=N/A    frame= 2562 fps=7.2 q=24.8 size=N/A time=00:01:25.48 bitrate=N/A    frame= 2566 fps=7.2 q=24.8 size=N/A time=00:01:25.61 bitrate=N/A    frame= 2570 fps=7.2 q=24.8 size=N/A time=00:01:25.75 bitrate=N/A    frame= 2574 fps=7.2 q=24.8 size=N/A time=00:01:25.88 bitrate=N/A    frame= 2578 fps=7.2 q=24.8 size=N/A time=00:01:26.01 bitrate=N/A    frame= 2582 fps=7.2 q=24.8 size=N/A time=00:01:26.15 bitrate=N/A    frame= 2586 fps=7.2 q=24.8 size=N/A time=00:01:26.28 bitrate=N/A    frame= 2590 fps=7.2 q=24.8 size=N/A time=00:01:26.41 bitrate=N/A    frame= 2594 fps=7.2 q=24.8 size=N/A time=00:01:26.55 bitrate=N/A    frame= 2598 fps=7.2 q=24.8 size=N/A time=00:01:26.68 bitrate=N/A    frame= 2602 fps=7.2 q=24.8 size=N/A time=00:01:26.82 bitrate=N/A    frame= 2606 fps=7.2 q=24.8 size=N/A time=00:01:26.95 bitrate=N/A    frame= 2610 fps=7.2 q=24.8 size=N/A time=00:01:27.08 bitrate=N/A    frame= 2614 fps=7.2 q=24.8 size=N/A time=00:01:27.22 bitrate=N/A    frame= 2618 fps=7.2 q=24.8 size=N/A time=00:01:27.35 bitrate=N/A    frame= 2622 fps=7.2 q=24.8 size=N/A time=00:01:27.48 bitrate=N/A    frame= 2626 fps=7.2 q=24.8 size=N/A time=00:01:27.62 bitrate=N/A    frame= 2630 fps=7.2 q=24.8 size=N/A time=00:01:27.75 bitrate=N/A    frame= 2634 fps=7.2 q=24.8 size=N/A time=00:01:27.88 bitrate=N/A    frame= 2638 fps=7.2 q=24.8 size=N/A time=00:01:28.02 bitrate=N/A    frame= 2642 fps=7.2 q=24.8 size=N/A time=00:01:28.15 bitrate=N/A    frame= 2646 fps=7.2 q=24.8 size=N/A time=00:01:28.28 bitrate=N/A    frame= 2650 fps=7.2 q=24.8 size=N/A time=00:01:28.42 bitrate=N/A    frame= 2654 fps=7.2 q=24.8 size=N/A time=00:01:28.55 bitrate=N/A    frame= 2658 fps=7.2 q=24.8 size=N/A time=00:01:28.68 bitrate=N/A    frame= 2662 fps=7.2 q=24.8 size=N/A time=00:01:28.82 bitrate=N/A    frame= 2666 fps=7.2 q=24.8 size=N/A time=00:01:28.95 bitrate=N/A    frame= 2670 fps=7.2 q=24.8 size=N/A time=00:01:29.08 bitrate=N/A    frame= 2674 fps=7.2 q=24.8 size=N/A time=00:01:29.22 bitrate=N/A    frame= 2678 fps=7.2 q=24.8 size=N/A time=00:01:29.35 bitrate=N/A    frame= 2682 fps=7.2 q=24.8 size=N/A time=00:01:29.48 bitrate=N/A    frame= 2686 fps=7.2 q=24.8 size=N/A time=00:01:29.62 bitrate=N/A    frame= 2690 fps=7.2 q=24.8 size=N/A time=00:01:29.75 bitrate=N/A    frame= 2694 fps=7.2 q=24.8 size=N/A time=00:01:29.88 bitrate=N/A    frame= 2698 fps=7.2 q=24.8 size=N/A time=00:01:30.02 bitrate=N/A    frame= 2702 fps=7.2 q=24.8 size=N/A time=00:01:30.15 bitrate=N/A    frame= 2706 fps=7.2 q=24.8 size=N/A time=00:01:30.29 bitrate=N/A    frame= 2710 fps=7.2 q=24.8 size=N/A time=00:01:30.42 bitrate=N/A    frame= 2714 fps=7.2 q=24.8 size=N/A time=00:01:30.55 bitrate=N/A    frame= 2718 fps=7.2 q=24.8 size=N/A time=00:01:30.69 bitrate=N/A    frame= 2722 fps=7.2 q=24.8 size=N/A time=00:01:30.82 bitrate=N/A    frame= 2726 fps=7.2 q=24.8 size=N/A time=00:01:30.95 bitrate=N/A    frame= 2730 fps=7.2 q=24.8 size=N/A time=00:01:31.09 bitrate=N/A    frame= 2734 fps=7.2 q=24.8 size=N/A time=00:01:31.22 bitrate=N/A    frame= 2738 fps=7.2 q=24.8 size=N/A time=00:01:31.35 bitrate=N/A    frame= 2742 fps=7.2 q=24.8 size=N/A time=00:01:31.49 bitrate=N/A    frame= 2746 fps=7.2 q=24.8 size=N/A time=00:01:31.62 bitrate=N/A    frame= 2750 fps=7.2 q=24.8 size=N/A time=00:01:31.75 bitrate=N/A    frame= 2754 fps=7.2 q=24.8 size=N/A time=00:01:31.89 bitrate=N/A    frame= 2758 fps=7.2 q=24.8 size=N/A time=00:01:32.02 bitrate=N/A    frame= 2762 fps=7.2 q=24.8 size=N/A time=00:01:32.15 bitrate=N/A    frame= 2766 fps=7.2 q=24.8 size=N/A time=00:01:32.29 bitrate=N/A    frame= 2769 fps=7.2 q=24.8 size=N/A time=00:01:32.39 bitrate=N/A    frame= 2769 fps=7.2 q=24.8 Lsize=N/A time=00:01:32.39 bitrate=N/A    
video:2860973kB audio:0kB subtitle:0kB other streams:0kB global headers:0kB muxing overhead: unknown
+ turkic load DJI_0039_turas_Homokmegy_2018.03.31._diffuz_kalaszos_T1 /home/horvathandras/vatic/vatic/videos/DJI_0039_turas_Homokmegy_2018.03.31._diffuz_kalaszos_T1 $'Pozit\303\255vROI' $'Negat\303\255vROI' $'T\303\272r\303\241s' '~Friss' '~Régebbi' $'R\303\241g\303\241s' '~Friss' '~Régebbi' $'T\303\266r\303\251s' '~Friss' '~Régebbi' $'Tapos\303\241s' '~Friss' '~Régebbi' $'Eg\303\251szs\303\251gesN\303\266v\303\251ny' $'Egy\303\251b1' $'Egy\303\251b2' $'Egy\303\251b3' $'Egy\303\251b4' $'Egy\303\251b5' --offline --title '$filenameNoDot Video' --length 1000 --description 'vatic annotation'
+ turkic publish --offline
+ mkdir /home/horvathandras/vatic/vatic/public/videothumbnails/DJI_0039_turas_Homokmegy_2018.03.31._diffuz_kalaszos_T1
+ cp /home/horvathandras/vatic/vatic/videos/DJI_0039_turas_Homokmegy_2018.03.31._diffuz_kalaszos_T1/0/0/31.jpg /home/horvathandras/vatic/vatic/public/videothumbnails/DJI_0039_turas_Homokmegy_2018.03.31._diffuz_kalaszos_T1/thumb.jpg
